<svg xmlns="http://www.w3.org/2000/svg" width="800" height="450" viewBox="0 0 800 450">
  <defs>
    <linearGradient id="bg" x1="0" y1="0" x2="1" y2="1">
      <stop offset="0%" stop-color="#0a0a0a"/>
      <stop offset="100%" stop-color="#1a1a2e"/>
    </linearGradient>
  </defs>
  <rect width="800" height="450" fill="url(#bg)"/>
  <rect x="0" y="420" width="800" height="30" fill="#10b981" opacity="0.8"/>
  <path d="M375 60 L375 155 Q375 160 380 160 L425 160 Q430 160 430 155 L430 75 L415 60 Z" fill="none" stroke="#10b981" stroke-width="3.5"/>
  <path d="M415 60 L415 75 L430 75" fill="none" stroke="#10b981" stroke-width="3"/>
  <line x1="388" y1="95" x2="418" y2="95" stroke="#10b981" stroke-width="2.5" opacity="0.7"/>
  <line x1="388" y1="110" x2="412" y2="110" stroke="#10b981" stroke-width="2.5" opacity="0.5"/>
  <line x1="388" y1="125" x2="420" y2="125" stroke="#10b981" stroke-width="2.5" opacity="0.7"/>
  <line x1="388" y1="140" x2="405" y2="140" stroke="#10b981" stroke-width="2.5" opacity="0.4"/>
  <text x="400" y="220" text-anchor="middle" font-family="Arial,sans-serif" font-size="36" font-weight="bold" fill="white">AI Document</text>
  <text x="400" y="262" text-anchor="middle" font-family="Arial,sans-serif" font-size="36" font-weight="bold" fill="white">Summarizer</text>
  <text x="400" y="310" text-anchor="middle" font-family="Arial,sans-serif" font-size="20" fill="#888">MyWork-AI Marketplace</text>
  <text x="400" y="350" text-anchor="middle" font-family="Arial,sans-serif" font-size="28" font-weight="bold" fill="#10b981">$24.99</text>
  <rect x="20" y="20" width="760" height="410" rx="12" fill="none" stroke="#10b981" stroke-width="2" opacity="0.3"/>
</svg>
