<svg xmlns="http://www.w3.org/2000/svg" width="400" height="300" viewBox="0 0 400 300">
  <defs>
    <linearGradient id="bg" x1="0%" y1="0%" x2="100%" y2="100%">
      <stop offset="0%" style="stop-color:#0f172a"/>
      <stop offset="100%" style="stop-color:#18181b"/>
    </linearGradient>
    <linearGradient id="accent" x1="0%" y1="0%" x2="100%" y2="0%">
      <stop offset="0%" style="stop-color:#ef4444"/>
      <stop offset="100%" style="stop-color:#f97316"/>
    </linearGradient>
  </defs>
  <rect width="400" height="300" fill="url(#bg)"/>
  <!-- shield -->
  <path d="M200 70 L240 85 L240 125 Q240 155 200 170 Q160 155 160 125 L160 85 Z" fill="none" stroke="url(#accent)" stroke-width="3"/>
  <!-- gauge inside shield -->
  <path d="M180 130 A25 25 0 0 1 220 130" fill="none" stroke="#ef4444" stroke-width="3"/>
  <line x1="200" y1="130" x2="212" y2="112" stroke="#f97316" stroke-width="2.5" stroke-linecap="round"/>
  <circle cx="200" cy="130" r="3" fill="#f97316"/>
  <!-- blocked lines -->
  <line x1="255" y1="100" x2="280" y2="100" stroke="#ef4444" stroke-width="2" opacity="0.5"/>
  <line x1="270" y1="95" x2="270" y2="105" stroke="#ef4444" stroke-width="2" opacity="0.5"/>
  <line x1="255" y1="120" x2="275" y2="120" stroke="#22c55e" stroke-width="2" opacity="0.5"/>
  <text x="200" y="210" text-anchor="middle" fill="white" font-family="Arial,sans-serif" font-size="22" font-weight="bold">API Rate Limiter</text>
  <text x="200" y="235" text-anchor="middle" fill="#94a3b8" font-family="Arial,sans-serif" font-size="13">Redis · Sliding Window · Dashboard</text>
  <rect x="140" y="255" width="120" height="28" rx="14" fill="url(#accent)"/>
  <text x="200" y="274" text-anchor="middle" fill="white" font-family="Arial,sans-serif" font-size="12" font-weight="bold">$19.99</text>
</svg>
