<svg xmlns="http://www.w3.org/2000/svg" width="400" height="300" viewBox="0 0 400 300">
  <defs>
    <linearGradient id="bg" x1="0%" y1="0%" x2="100%" y2="100%">
      <stop offset="0%" style="stop-color:#0f172a"/>
      <stop offset="100%" style="stop-color:#1e1b4b"/>
    </linearGradient>
    <linearGradient id="accent" x1="0%" y1="0%" x2="100%" y2="0%">
      <stop offset="0%" style="stop-color:#f59e0b"/>
      <stop offset="100%" style="stop-color:#ef4444"/>
    </linearGradient>
  </defs>
  <rect width="400" height="300" fill="url(#bg)"/>
  <circle cx="200" cy="115" r="40" fill="none" stroke="url(#accent)" stroke-width="3"/>
  <line x1="200" y1="115" x2="200" y2="90" stroke="#f59e0b" stroke-width="3" stroke-linecap="round"/>
  <line x1="200" y1="115" x2="218" y2="125" stroke="#ef4444" stroke-width="2.5" stroke-linecap="round"/>
  <circle cx="200" cy="115" r="3" fill="#f59e0b"/>
  <!-- tick marks -->
  <line x1="200" y1="78" x2="200" y2="82" stroke="#94a3b8" stroke-width="1.5"/>
  <line x1="200" y1="148" x2="200" y2="152" stroke="#94a3b8" stroke-width="1.5"/>
  <line x1="163" y1="115" x2="167" y2="115" stroke="#94a3b8" stroke-width="1.5"/>
  <line x1="233" y1="115" x2="237" y2="115" stroke="#94a3b8" stroke-width="1.5"/>
  <!-- refresh arrow -->
  <path d="M245 100 A50 50 0 0 1 245 130" fill="none" stroke="#f59e0b" stroke-width="2" opacity="0.6"/>
  <polygon points="245,130 250,122 240,122" fill="#f59e0b" opacity="0.6"/>
  <text x="200" y="200" text-anchor="middle" fill="white" font-family="Arial,sans-serif" font-size="22" font-weight="bold">Cron Job Dashboard</text>
  <text x="200" y="225" text-anchor="middle" fill="#94a3b8" font-family="Arial,sans-serif" font-size="13">Visual Scheduler · Alerts · Retry Logic</text>
  <rect x="140" y="245" width="120" height="28" rx="14" fill="url(#accent)"/>
  <text x="200" y="264" text-anchor="middle" fill="white" font-family="Arial,sans-serif" font-size="12" font-weight="bold">$19.99</text>
</svg>
