<svg xmlns="http://www.w3.org/2000/svg" width="800" height="500">
  <defs>
    <linearGradient id="bg" x1="0%" y1="0%" x2="100%" y2="100%">
      <stop offset="0%" style="stop-color:#1a1a2e"/>
      <stop offset="100%" style="stop-color:#16213e"/>
    </linearGradient>
    <linearGradient id="card" x1="0%" y1="0%" x2="0%" y2="100%">
      <stop offset="0%" style="stop-color:#252542"/>
      <stop offset="100%" style="stop-color:#1e1e35"/>
    </linearGradient>
    <linearGradient id="accent" x1="0%" y1="0%" x2="100%" y2="0%">
      <stop offset="0%" style="stop-color:#10b981"/>
      <stop offset="100%" style="stop-color:#059669"/>
    </linearGradient>
  </defs>
  
  <!-- Background -->
  <rect width="800" height="500" fill="url(#bg)"/>
  
  <!-- Sidebar -->
  <rect x="0" y="0" width="200" height="500" fill="#0f0f1a"/>
  <text x="20" y="40" fill="#fff" font-family="sans-serif" font-size="18" font-weight="bold">🔄 WebhookRelay</text>
  <text x="20" y="90" fill="#10b981" font-family="sans-serif" font-size="14" font-weight="bold">Dashboard</text>
  <text x="20" y="120" fill="#888" font-family="sans-serif" font-size="14">Endpoints</text>
  <text x="20" y="150" fill="#888" font-family="sans-serif" font-size="14">Logs</text>
  <text x="20" y="180" fill="#888" font-family="sans-serif" font-size="14">Rules</text>
  <text x="20" y="210" fill="#888" font-family="sans-serif" font-size="14">Integrations</text>
  <text x="20" y="240" fill="#888" font-family="sans-serif" font-size="14">Settings</text>
  
  <!-- Header -->
  <rect x="200" y="0" width="600" height="60" fill="#1a1a2e"/>
  <text x="220" y="38" fill="#fff" font-family="sans-serif" font-size="16">Dashboard</text>
  <rect x="600" y="18" width="140" height="32" rx="16" fill="url(#accent)"/>
  <text x="630" y="40" fill="#fff" font-family="sans-serif" font-size="13" font-weight="bold">+ New Endpoint</text>
  
  <!-- Stats Cards -->
  <rect x="220" y="80" width="170" height="100" rx="8" fill="url(#card)"/>
  <text x="235" y="110" fill="#888" font-family="sans-serif" font-size="12">Active Endpoints</text>
  <text x="235" y="140" fill="#fff" font-family="sans-serif" font-size="28" font-weight="bold">14</text>
  <text x="235" y="165" fill="#10b981" font-family="sans-serif" font-size="12">↑ 5 this week</text>
  
  <rect x="410" y="80" width="170" height="100" rx="8" fill="url(#card)"/>
  <text x="425" y="110" fill="#888" font-family="sans-serif" font-size="12">Requests Today</text>
  <text x="425" y="140" fill="#fff" font-family="sans-serif" font-size="28" font-weight="bold">1,284</text>
  <text x="425" y="165" fill="#10b981" font-family="sans-serif" font-size="12">↑ 12% vs yesterday</text>
  
  <rect x="600" y="80" width="170" height="100" rx="8" fill="url(#card)"/>
  <text x="615" y="110" fill="#888" font-family="sans-serif" font-size="12">Error Rate</text>
  <text x="615" y="140" fill="#fff" font-family="sans-serif" font-size="28" font-weight="bold">0.8%</text>
  <text x="615" y="165" fill="#ef4444" font-family="sans-serif" font-size="12">↑ 0.2%</text>
  
  <!-- Recent Requests -->
  <rect x="220" y="200" width="550" height="140" rx="8" fill="url(#card)"/>
  <text x="235" y="230" fill="#fff" font-family="sans-serif" font-size="14" font-weight="bold">Recent Requests</text>
  
  <!-- Request 1 -->
  <rect x="235" y="245" width="520" height="40" rx="4" fill="#2a2a4a"/>
  <text x="250" y="270" fill="#fff" font-family="sans-serif" font-size="12">POST /api/webhooks/stripe</text>
  <text x="480" y="270" fill="#888" font-family="sans-serif" font-size="12">2s ago</text>
  <text x="680" y="270" fill="#10b981" font-family="sans-serif" font-size="12">200 OK</text>
  
  <!-- Request 2 -->
  <rect x="235" y="295" width="520" height="40" rx="4" fill="#2a2a4a"/>
  <text x="250" y="320" fill="#fff" font-family="sans-serif" font-size="12">GET /api/webhooks/github</text>
  <text x="480" y="320" fill="#888" font-family="sans-serif" font-size="12">1m ago</text>
  <text x="680" y="320" fill="#ef4444" font-family="sans-serif" font-size="12">401 Unauthorized</text>
  
  <!-- Quick Actions -->
  <rect x="220" y="360" width="260" height="120" rx="8" fill="url(#card)"/>
  <text x="235" y="390" fill="#fff" font-family="sans-serif" font-size="14" font-weight="bold">Quick Actions</text>
  <rect x="235" y="410" width="100" height="35" rx="4" fill="url(#accent)"/>
  <text x="265" y="432" fill="#fff" font-family="sans-serif" font-size="12">New Endpoint</text>
  <rect x="345" y="410" width="100" height="35" rx="4" fill="#374151"/>
  <text x="375" y="432" fill="#fff" font-family="sans-serif" font-size="12">Add Rule</text>
  <rect x="235" y="455" width="210" height="35" rx="4" fill="#374151"/>
  <text x="275" y="477" fill="#fff" font-family="sans-serif" font-size="12">View Documentation</text>
  
  <!-- System Status -->
  <rect x="510" y="360" width="260" height="120" rx="8" fill="url(#card)"/>
  <text x="525" y="390" fill="#fff" font-family="sans-serif" font-size="14" font-weight="bold">System Status</text>
  <text x="525" y="415" fill="#888" font-family="sans-serif" font-size="12">Uptime</text>
  <text x="525" y="435" fill="#fff" font-family="sans-serif" font-size="18" font-weight="bold">99.98%</text>
  <text x="525" y="465" fill="#888" font-family="sans-serif" font-size="12">Last Incident</text>
  <text x="525" y="485" fill="#fff" font-family="sans-serif" font-size="12">None in 30 days</text>
</svg>