<svg xmlns="http://www.w3.org/2000/svg" width="800" height="500">
  <defs>
    <linearGradient id="bg" x1="0%" y1="0%" x2="100%" y2="100%">
      <stop offset="0%" style="stop-color:#1a1a2e"/>
      <stop offset="100%" style="stop-color:#16213e"/>
    </linearGradient>
    <linearGradient id="card" x1="0%" y1="0%" x2="0%" y2="100%">
      <stop offset="0%" style="stop-color:#252542"/>
      <stop offset="100%" style="stop-color:#1e1e35"/>
    </linearGradient>
    <linearGradient id="chart1" x1="0%" y1="100%" x2="0%" y2="0%">
      <stop offset="0%" style="stop-color:#10b981"/>
      <stop offset="100%" style="stop-color:#059669"/>
    </linearGradient>
  </defs>
  
  <!-- Background -->
  <rect width="800" height="500" fill="url(#bg)"/>
  
  <!-- Sidebar -->
  <rect x="0" y="0" width="200" height="500" fill="#0f0f1a"/>
  <text x="20" y="40" fill="#fff" font-family="sans-serif" font-size="18" font-weight="bold">🔄 WebhookRelay</text>
  <text x="20" y="90" fill="#888" font-family="sans-serif" font-size="14">Dashboard</text>
  <text x="20" y="120" fill="#888" font-family="sans-serif" font-size="14">Endpoints</text>
  <text x="20" y="150" fill="#10b981" font-family="sans-serif" font-size="14" font-weight="bold">Logs</text>
  <text x="20" y="180" fill="#888" font-family="sans-serif" font-size="14">Rules</text>
  <text x="20" y="210" fill="#888" font-family="sans-serif" font-size="14">Integrations</text>
  <text x="20" y="240" fill="#888" font-family="sans-serif" font-size="14">Settings</text>
  
  <!-- Header -->
  <rect x="200" y="0" width="600" height="60" fill="#1a1a2e"/>
  <text x="220" y="38" fill="#fff" font-family="sans-serif" font-size="16">Request Logs</text>
  <rect x="600" y="18" width="100" height="30" rx="4" fill="#2a2a4a"/>
  <text x="615" y="38" fill="#888" font-family="sans-serif" font-size="12">Last 24h ▼</text>
  
  <!-- Filters -->
  <rect x="220" y="80" width="120" height="30" rx="4" fill="#2a2a4a"/>
  <text x="235" y="100" fill="#888" font-family="sans-serif" font-size="12">All Endpoints ▼</text>
  <rect x="350" y="80" width="100" height="30" rx="4" fill="#2a2a4a"/>
  <text x="365" y="100" fill="#888" font-family="sans-serif" font-size="12">Status ▼</text>
  <rect x="460" y="80" width="140" height="30" rx="4" fill="#2a2a4a"/>
  <text x="475" y="100" fill="#888" font-family="sans-serif" font-size="12">Search Logs...</text>
  
  <!-- Logs Table -->
  <rect x="220" y="130" width="550" height="350" rx="8" fill="url(#card)"/>
  
  <!-- Table Header -->
  <rect x="220" y="130" width="550" height="40" rx="8" fill="#2a2a4a"/>
  <text x="240" y="155" fill="#888" font-family="sans-serif" font-size="11">Time</text>
  <text x="320" y="155" fill="#888" font-family="sans-serif" font-size="11">Endpoint</text>
  <text x="450" y="155" fill="#888" font-family="sans-serif" font-size="11">Method</text>
  <text x="520" y="155" fill="#888" font-family="sans-serif" font-size="11">Status</text>
  <text x="600" y="155" fill="#888" font-family="sans-serif" font-size="11">Duration</text>
  
  <!-- Row 1 -->
  <rect x="235" y="185" width="520" height="40" rx="4" fill="#1a1a2e"/>
  <text x="250" y="210" fill="#888" font-family="sans-serif" font-size="11">2s ago</text>
  <text x="320" y="210" fill="#fff" font-family="sans-serif" font-size="11">/api/webhooks/stripe</text>
  <text x="450" y="210" fill="#10b981" font-family="sans-serif" font-size="11">POST</text>
  <text x="520" y="210" fill="#10b981" font-family="sans-serif" font-size="11">200</text>
  <text x="600" y="210" fill="#fff" font-family="sans-serif" font-size="11">142ms</text>
  
  <!-- Row 2 -->
  <rect x="235" y="235" width="520" height="40" rx="4" fill="#1a1a2e"/>
  <text x="250" y="260" fill="#888" font-family="sans-serif" font-size="11">1m ago</text>
  <text x="320" y="260" fill="#fff" font-family="sans-serif" font-size="11">/api/webhooks/github</text>
  <text x="450" y="260" fill="#f59e0b" font-family="sans-serif" font-size="11">GET</text>
  <text x="520" y="260" fill="#ef4444" font-family="sans-serif" font-size="11">401</text>
  <text x="600" y="260" fill="#fff" font-family="sans-serif" font-size="11">87ms</text>
  
  <!-- Row 3 -->
  <rect x="235" y="285" width="520" height="40" rx="4" fill="#1a1a2e"/>
  <text x="250" y="310" fill="#888" font-family="sans-serif" font-size="11">3m ago</text>
  <text x="320" y="310" fill="#fff" font-family="sans-serif" font-size="11">/api/webhooks/slack</text>
  <text x="450" y="310" fill="#10b981" font-family="sans-serif" font-size="11">POST</text>
  <text x="520" y="310" fill="#10b981" font-family="sans-serif" font-size="11">202</text>
  <text x="600" y="310" fill="#fff" font-family="sans-serif" font-size="11">210ms</text>
  
  <!-- Row 4 -->
  <rect x="235" y="335" width="520" height="40" rx="4" fill="#1a1a2e"/>
  <text x="250" y="360" fill="#888" font-family="sans-serif" font-size="11">5m ago</text>
  <text x="320" y="360" fill="#fff" font-family="sans-serif" font-size="11">/api/webhooks/mailchimp</text>
  <text x="450" y="360" fill="#10b981" font-family="sans-serif" font-size="11">POST</text>
  <text x="520" y="360" fill="#10b981" font-family="sans-serif" font-size="11">200</text>
  <text x="600" y="360" fill="#fff" font-family="sans-serif" font-size="11">156ms</text>
  
  <!-- Row 5 -->
  <rect x="235" y="385" width="520" height="40" rx="4" fill="#1a1a2e"/>
  <text x="250" y="410" fill="#888" font-family="sans-serif" font-size="11">12m ago</text>
  <text x="320" y="410" fill="#fff" font-family="sans-serif" font-size="11">/api/webhooks/stripe</text>
  <text x="450" y="410" fill="#10b981" font-family="sans-serif" font-size="11">POST</text>
  <text x="520" y="410" fill="#10b981" font-family="sans-serif" font-size="11">200</text>
  <text x="600" y="410" fill="#fff" font-family="sans-serif" font-size="11">178ms</text>
  
  <!-- Row 6 -->
  <rect x="235" y="435" width="520" height="40" rx="4" fill="#1a1a2e"/>
  <text x="250" y="460" fill="#888" font-family="sans-serif" font-size="11">15m ago</text>
  <text x="320" y="460" fill="#fff" font-family="sans-serif" font-size="11">/api/webhooks/github</text>
  <text x="450" y="460" fill="#f59e0b" font-family="sans-serif" font-size="11">GET</text>
  <text x="520" y="460" fill="#ef4444" font-family="sans-serif" font-size="11">404</text>
  <text x="600" y="460" fill="#fff" font-family="sans-serif" font-size="11">92ms</text>
</svg>